<svg width="32" height="33" viewBox="0 0 32 33" fill="none" xmlns="http://www.w3.org/2000/svg">
<g clip-path="url(#clip0_50_19)">
<circle cx="16" cy="17" r="15" fill="#F9FAFD"/>
<g clip-path="url(#clip1_50_19)">
<g clip-path="url(#clip2_50_19)">
<path d="M16.3572 6.00152C15.6229 6.02052 14.8754 6.21544 14.1957 6.60785C12.6571 7.49613 11.8361 9.16806 11.9342 10.8383C9.92931 12.2255 8.73852 14.4175 8.53855 16.7237C8.44966 16.7674 8.36147 16.809 8.2746 16.8592C6.10648 18.1109 5.35402 20.9197 6.60531 23.0869C7.85706 25.2551 10.6659 26.0076 12.8331 24.7563C12.918 24.7067 13.0013 24.6543 13.0828 24.5994C15.1835 25.5815 17.6816 25.6457 19.8884 24.5994C21.2839 25.5121 23.1341 25.642 24.6681 24.7563C26.8362 23.5045 27.5887 20.6957 26.3374 18.5285C25.8728 17.7236 25.1916 17.1114 24.4113 16.7236C24.3173 15.5547 23.964 14.4215 23.3769 13.4064C22.7712 12.3573 21.9539 11.5003 21.0156 10.8525C21.0739 9.98242 20.8889 9.09041 20.4235 8.28427C19.5646 6.79672 17.9772 5.9594 16.3572 6.00152ZM16.4143 8.28427C17.2168 8.26349 18.0023 8.66706 18.4403 9.42573C19.0754 10.5258 18.712 11.8943 17.6127 12.5289C16.5149 13.1628 15.1449 12.7947 14.5096 11.6943C13.8745 10.5943 14.2379 9.22569 15.3371 8.59105C15.6784 8.39403 16.0474 8.29382 16.4143 8.28427ZM12.7118 13.1211C14.0365 15.0662 16.6833 15.7079 18.7542 14.5122C19.3673 14.1582 19.8577 13.6742 20.2309 13.1211C20.6807 13.5193 21.0748 13.9957 21.3937 14.5479C21.7099 15.0956 21.9217 15.6753 22.0429 16.26C21.3823 16.3101 20.7196 16.5 20.1096 16.8521C18.0393 18.0474 17.2671 20.66 18.2905 22.7803C17.1115 23.1826 15.8328 23.1851 14.6522 22.7874C15.2816 21.473 15.2805 19.8762 14.5024 18.5285C13.7238 17.1799 12.3452 16.3764 10.8927 16.2671C11.1328 15.0733 11.7571 13.9584 12.7118 13.1211ZM22.3282 18.5285C23.1308 18.5077 23.9162 18.9112 24.3542 19.6699C24.9893 20.7699 24.6259 22.1384 23.5267 22.7731C22.4289 23.407 21.0588 23.0389 20.4235 21.9385C19.7884 20.8384 20.1518 19.4699 21.251 18.8352C21.5923 18.6382 21.9613 18.538 22.3282 18.5285ZM10.4932 18.5356C11.3003 18.5146 12.0822 18.913 12.5192 19.6699C13.1543 20.7699 12.7909 22.1384 11.6917 22.7731C10.5916 23.4082 9.22315 23.0448 8.58851 21.9455C7.9534 20.8455 8.31679 19.477 9.41598 18.8424C9.75727 18.6453 10.1263 18.5451 10.4932 18.5356Z" fill="black"/>
</g>
</g>
</g>
<defs>
<clipPath id="clip0_50_19">
<rect width="32" height="32" fill="white" transform="translate(0 0.801453)"/>
</clipPath>
<clipPath id="clip1_50_19">
<rect width="20.9427" height="19.3616" fill="white" transform="translate(6 6)"/>
</clipPath>
<clipPath id="clip2_50_19">
<rect width="20.9427" height="19.3616" fill="white" transform="translate(6 6)"/>
</clipPath>
</defs>
</svg>
