<svg xmlns="http://www.w3.org/2000/svg" version="1.1" xmlns:xlink="http://www.w3.org/1999/xlink" xmlns:svgjs="http://svgjs.dev/svgjs" width="1500" height="416" viewBox="0 0 1500 416"><g transform="matrix(1,0,0,1,-0.9090909090909918,-0.598661262207969)"><svg viewBox="0 0 396 110" data-background-color="#f9fafd" preserveAspectRatio="xMidYMid meet" height="416" width="1500" xmlns="http://www.w3.org/2000/svg" xmlns:xlink="http://www.w3.org/1999/xlink"><g id="tight-bounds" transform="matrix(1,0,0,1,0.2400000000000091,0.1582998529876818)"><svg viewBox="0 0 395.52 109.6830808758344" height="109.6830808758344" width="395.52"><g><svg viewBox="0 0 591.289117461224 163.97252248053243" height="109.6830808758344" width="395.52"><g transform="matrix(1,0,0,1,195.769117461224,48.314271096529055)"><svg viewBox="0 0 395.52 67.34398028747432" height="67.34398028747432" width="395.52"><g id="textblocktransform"><svg viewBox="0 0 395.52 67.34398028747432" height="67.34398028747432" width="395.52" id="textblock"><g><svg viewBox="0 0 395.52 67.34398028747432" height="67.34398028747432" width="395.52"><g transform="matrix(1,0,0,1,0,0)"><svg width="395.52" viewBox="2.49 -38.11 297.21 50.61" height="67.34398028747432" data-palette-color="#f9fafd"><g class="wordmark-text-0" data-fill-palette-color="primary" id="text-0"><path d="M3.76-9.74L6.15-3.2Q9.99-2.25 12.55-2.25L12.55-2.25Q13.87-2.25 15.15-2.53 16.43-2.81 17.44-3.49 18.46-4.17 19.08-5.31 19.7-6.45 19.7-8.15L19.7-8.15Q19.7-9.28 19.38-10.27 19.07-11.25 18.23-12.23 17.38-13.21 15.94-14.22 14.5-15.23 12.26-16.46L12.26-16.46Q9.81-17.77 8.04-18.96 6.27-20.14 5.11-21.41 3.96-22.68 3.41-24.15 2.86-25.61 2.86-27.49L2.86-27.49Q2.86-36.69 14.36-36.69L14.36-36.69Q18.43-36.69 22.95-35.55L22.95-35.55 22.95-27.1 21.95-27.1 19.31-33.3Q16.72-33.84 14.65-33.84L14.65-33.84Q11.16-33.84 9.2-32.51 7.25-31.18 7.25-28.39L7.25-28.39Q7.25-27.42 7.52-26.54 7.79-25.66 8.62-24.71 9.45-23.75 10.96-22.68 12.48-21.61 14.94-20.24L14.94-20.24Q17.38-18.92 19.2-17.8 21.02-16.67 22.22-15.49 23.41-14.31 24.01-12.92 24.61-11.52 24.61-9.69L24.61-9.69Q24.61-6.76 23.63-4.8 22.66-2.83 21.01-1.62 19.36-0.42 17.16 0.1 14.97 0.61 12.55 0.61L12.55 0.61Q11.13 0.61 9.92 0.52 8.72 0.44 7.54 0.26 6.37 0.07 5.15-0.23 3.93-0.54 2.49-0.95L2.49-0.95 2.49-9.74 3.76-9.74ZM41.55-25.61L41.55-25.61Q44.33-25.61 46.56-24.66 48.78-23.71 50.31-21.98 51.85-20.26 52.67-17.85 53.49-15.43 53.49-12.5L53.49-12.5Q53.49-9.59 52.68-7.18 51.88-4.76 50.34-3.03 48.8-1.29 46.58-0.34 44.36 0.61 41.55 0.61L41.55 0.61Q38.72 0.61 36.5-0.34 34.27-1.29 32.74-3.03 31.2-4.76 30.39-7.17 29.59-9.57 29.59-12.5L29.59-12.5Q29.59-15.43 30.41-17.85 31.22-20.26 32.76-21.98 34.3-23.71 36.52-24.66 38.74-25.61 41.55-25.61ZM36.23-20.43L36.23-20.43Q34.35-17.38 34.35-12.5L34.35-12.5Q34.35-10.08 34.82-8.07 35.3-6.05 36.22-4.6 37.13-3.15 38.47-2.34 39.82-1.54 41.55-1.54L41.55-1.54Q43.28-1.54 44.65-2.34 46.02-3.15 46.96-4.6 47.9-6.05 48.4-8.07 48.9-10.08 48.9-12.5L48.9-12.5Q48.9-14.89 48.4-16.91 47.9-18.92 46.96-20.37 46.02-21.83 44.65-22.64 43.28-23.46 41.55-23.46L41.55-23.46Q38.08-23.46 36.23-20.43ZM69.53 0.61L69.53 0.61Q67.23 0.61 65.14-0.33 63.06-1.27 61.47-2.94 59.88-4.61 58.93-7.1 57.98-9.59 57.98-12.5L57.98-12.5Q57.98-15.65 58.93-18.19 59.88-20.73 61.56-22.34 63.23-23.95 65.4-24.8 67.57-25.66 70.09-25.66L70.09-25.66Q73.68-25.66 77.14-24.05L77.14-24.05 77.14-16.5 76.14-16.5 73.43-23.05Q71.97-23.39 70.53-23.39L70.53-23.39Q66.69-23.39 64.86-20.56 63.03-17.72 63.03-12.5L63.03-12.5Q63.03-7.52 65.45-4.86 67.87-2.2 72.09-2.2L72.09-2.2Q73.53-2.2 74.69-2.58 75.85-2.95 77.53-3.91L77.53-3.91 78.29-2.34Q76.12-0.63 74.09-0.01 72.07 0.61 69.53 0.61ZM91.3-2.76L95.79-1 95.79 0 82.29 0 82.29-1 86.78-2.76 86.78-21.09 82.29-22.85 82.29-23.85 90.79-25.61 91.3-25.1 91.3-2.76ZM85.15-32.96L85.15-32.96Q85.15-34.23 86.04-35.12 86.93-36.01 88.25-36.01L88.25-36.01Q89.52-36.01 90.41-35.12 91.3-34.23 91.3-32.96L91.3-32.96Q91.3-31.64 90.41-30.75 89.52-29.86 88.25-29.86L88.25-29.86Q86.93-29.86 86.04-30.75 85.15-31.64 85.15-32.96ZM118.52-3.39L123.04-2.15 123.04-1.25 117.74 0.39Q116.18 0.73 115.1 0.04 114.03-0.66 114.03-2.34L114.03-2.34Q110.85 0.61 106.58 0.61L106.58 0.61Q103.04 0.61 101.28-1.22 99.53-3.05 99.53-5.81L99.53-5.81Q99.53-7.89 100.45-9.48 101.38-11.08 102.82-12.04 104.26-12.99 106.26-13.62 108.27-14.26 110.12-14.5 111.98-14.75 114.03-14.79L114.03-14.79 114.03-17.14Q114.03-20.56 112.95-21.9 111.88-23.24 109.39-23.24L109.39-23.24Q107.51-23.24 104.97-22.66L104.97-22.66 102.38-16.99 101.19-16.99 101.19-23.95Q103.38-24.73 105.82-25.17 108.27-25.61 110.12-25.61L110.12-25.61Q114.15-25.61 116.34-23.99 118.52-22.36 118.52-18.65L118.52-18.65 118.52-3.39ZM108.63-2.25L108.63-2.25Q110.02-2.25 111.49-2.92 112.95-3.59 114.03-4.76L114.03-4.76 114.03-12.79Q109.15-12.57 106.58-10.8 104.02-9.03 104.02-6.3L104.02-6.3Q104.02-4.2 105.36-3.22 106.7-2.25 108.63-2.25ZM134.26-2.76L138.76-1 138.76 0 125.26 0 125.26-1 129.77-2.76 129.77-33.59 125.26-35.35 125.26-36.35 133.78-38.11 134.26-37.6 134.26-2.76ZM144.52-9.74L146.91-3.2Q150.74-2.25 153.31-2.25L153.31-2.25Q154.62-2.25 155.91-2.53 157.19-2.81 158.2-3.49 159.21-4.17 159.84-5.31 160.46-6.45 160.46-8.15L160.46-8.15Q160.46-9.28 160.14-10.27 159.82-11.25 158.98-12.23 158.14-13.21 156.7-14.22 155.26-15.23 153.01-16.46L153.01-16.46Q150.57-17.77 148.8-18.96 147.03-20.14 145.87-21.41 144.71-22.68 144.16-24.15 143.61-25.61 143.61-27.49L143.61-27.49Q143.61-36.69 155.11-36.69L155.11-36.69Q159.19-36.69 163.71-35.55L163.71-35.55 163.71-27.1 162.7-27.1 160.07-33.3Q157.48-33.84 155.4-33.84L155.4-33.84Q151.91-33.84 149.96-32.51 148.01-31.18 148.01-28.39L148.01-28.39Q148.01-27.42 148.28-26.54 148.54-25.66 149.37-24.71 150.2-23.75 151.72-22.68 153.23-21.61 155.7-20.24L155.7-20.24Q158.14-18.92 159.96-17.8 161.78-16.67 162.97-15.49 164.17-14.31 164.77-12.92 165.37-11.52 165.37-9.69L165.37-9.69Q165.37-6.76 164.39-4.8 163.41-2.83 161.76-1.62 160.12-0.42 157.92 0.1 155.72 0.61 153.31 0.61L153.31 0.61Q151.89 0.61 150.68 0.52 149.47 0.44 148.3 0.26 147.13 0.07 145.91-0.23 144.69-0.54 143.25-0.95L143.25-0.95 143.25-9.74 144.52-9.74ZM177.35 9.74L182.84 11.5 182.84 12.5 168.34 12.5 168.34 11.5 172.86 9.74 172.86-21.09 168.34-22.85 168.34-23.85 176.84-25.61 177.35-25.1 177.35-22.61Q178.72-24.29 180.28-24.95 181.84-25.61 183.94-25.61L183.94-25.61Q185.97-25.61 187.89-24.69 189.8-23.78 191.3-22.13 192.8-20.48 193.72-17.97 194.64-15.45 194.64-12.5L194.64-12.5Q194.64-9.16 193.61-6.57 192.59-3.98 190.86-2.45 189.14-0.93 187.07-0.16 184.99 0.61 182.7 0.61L182.7 0.61Q179.79 0.61 177.35-0.44L177.35-0.44 177.35 9.74ZM182.89-23.1L182.89-23.1Q181.35-23.1 179.87-22.39 178.38-21.68 177.35-20.41L177.35-20.41 177.35-4.91Q178.06-3.52 179.51-2.71 180.96-1.9 182.7-1.9L182.7-1.9Q183.75-1.9 184.7-2.25 185.65-2.59 186.55-3.39 187.46-4.2 188.12-5.4 188.78-6.59 189.17-8.41 189.56-10.23 189.56-12.5L189.56-12.5Q189.56-17.24 187.8-20.17 186.04-23.1 182.89-23.1ZM207.4-2.76L211.65-1 211.65 0 198.39 0 198.39-1 202.91-2.76 202.91-33.59 198.39-35.35 198.39-36.35 206.91-38.11 207.4-37.6 207.4-22.14Q209.11-23.75 211.43-24.68 213.75-25.61 216-25.61L216-25.61Q219.29-25.61 221.45-23.61 223.61-21.61 223.61-17.65L223.61-17.65 223.61-2.76 228.11-1 228.11 0 214.85 0 214.85-1 219.1-2.76 219.1-16.16Q219.1-19.68 217.85-21.04 216.61-22.41 213.55-22.41L213.55-22.41Q209.92-22.41 207.4-20.24L207.4-20.24 207.4-2.76ZM252.66-13.06L251.96-12.35 236.16-12.35Q236.18-9.62 236.94-7.59 237.7-5.57 238.99-4.42 240.29-3.27 241.84-2.73 243.39-2.2 245.22-2.2L245.22-2.2Q247.76-2.2 250.66-3.91L250.66-3.91 251.42-2.44Q249.37-0.63 247.32-0.01 245.27 0.61 242.65 0.61L242.65 0.61Q240.38 0.61 238.28-0.35 236.18-1.32 234.6-3.02 233.01-4.71 232.06-7.18 231.11-9.64 231.11-12.5L231.11-12.5Q231.11-15.21 231.8-17.44 232.5-19.68 233.64-21.17 234.79-22.66 236.32-23.68 237.84-24.71 239.44-25.16 241.04-25.61 242.7-25.61L242.7-25.61Q244.78-25.61 246.55-24.84 248.32-24.07 249.7-22.57 251.08-21.07 251.87-18.63 252.66-16.19 252.66-13.06L252.66-13.06ZM242.8-23.24L242.8-23.24Q239.99-23.24 238.32-21.02 236.65-18.8 236.26-14.94L236.26-14.94 247.9-14.94Q247.9-18.85 246.58-21.04 245.27-23.24 242.8-23.24ZM265.4-2.76L271.17-1 271.17 0 256.42 0 256.42-1 260.91-2.76 260.91-21.09 256.42-22.85 256.42-23.85 264.92-25.61 265.4-25.1 265.4-22.09Q269.12-25.61 275.17-25.61L275.17-25.61 275.17-20.19 274.17-19.85 270.6-21.8Q269.51-21.8 268.09-21.33 266.67-20.85 265.4-19.95L265.4-19.95 265.4-2.76ZM299.7-13.06L299-12.35 283.2-12.35Q283.22-9.62 283.98-7.59 284.74-5.57 286.03-4.42 287.33-3.27 288.88-2.73 290.43-2.2 292.26-2.2L292.26-2.2Q294.8-2.2 297.7-3.91L297.7-3.91 298.46-2.44Q296.41-0.63 294.36-0.01 292.31 0.61 289.69 0.61L289.69 0.61Q287.42 0.61 285.32-0.35 283.22-1.32 281.64-3.02 280.05-4.71 279.1-7.18 278.15-9.64 278.15-12.5L278.15-12.5Q278.15-15.21 278.84-17.44 279.54-19.68 280.69-21.17 281.83-22.66 283.36-23.68 284.88-24.71 286.48-25.16 288.08-25.61 289.74-25.61L289.74-25.61Q291.82-25.61 293.59-24.84 295.36-24.07 296.74-22.57 298.12-21.07 298.91-18.63 299.7-16.19 299.7-13.06L299.7-13.06ZM289.84-23.24L289.84-23.24Q287.03-23.24 285.36-21.02 283.69-18.8 283.3-14.94L283.3-14.94 294.94-14.94Q294.94-18.85 293.62-21.04 292.31-23.24 289.84-23.24Z" fill="#f9fafd" data-fill-palette-color="primary"></path></g></svg></g></svg></g></svg></g></svg></g><g><svg viewBox="0 0 163.97252248053243 163.97252248053243" height="163.97252248053243" width="163.97252248053243"><g><svg></svg></g><g id="icon-0"><svg viewBox="0 0 163.97252248053243 163.97252248053243" height="163.97252248053243" width="163.97252248053243"><g><path d="M0 81.986c0-45.28 36.706-81.986 81.986-81.986 45.28 0 81.986 36.706 81.987 81.986 0 45.28-36.706 81.986-81.987 81.987-45.28 0-81.986-36.706-81.986-81.987zM81.986 157.899c41.926 0 75.913-33.987 75.913-75.913 0-41.926-33.987-75.913-75.913-75.913-41.926 0-75.913 33.987-75.913 75.913 0 41.926 33.987 75.913 75.913 75.913z" data-fill-palette-color="accent" fill="#f9fafd" stroke="transparent"></path></g><g transform="matrix(1,0,0,1,34.540962761632244,38.12296131632799)"><svg viewBox="0 0 94.89059695726795 87.72659984787646" height="87.72659984787646" width="94.89059695726795"><g><svg xmlns="http://www.w3.org/2000/svg" xml:space="preserve" fill-rule="evenodd" viewBox="15.000214146227357 25.192455198865698 269.9995717075453 249.61529535905888" x="0" y="0" height="87.72659984787646" width="94.89059695726795" class="icon-dxe-0" data-fill-palette-color="accent" id="dxe-0"><path fill-rule="nonzero" d="M148.528 25.212c-9.466 0.245-19.103 2.758-27.867 7.817-19.836 11.452-30.42 33.007-29.155 54.54-25.848 17.884-41.2 46.144-43.778 75.876-1.146 0.564-2.283 1.1-3.403 1.747-27.952 16.138-37.653 52.35-21.521 80.29 16.138 27.953 52.35 37.654 80.29 21.522a59 59 0 0 0 3.22-2.023c27.082 12.662 59.289 13.49 87.74 0 17.991 11.767 41.844 13.442 61.621 2.023 27.952-16.138 37.653-52.35 21.521-80.29-5.99-10.377-14.772-18.27-24.832-23.27a101.7 101.7 0 0 0-13.336-42.766c-7.809-13.526-18.345-24.574-30.442-32.926 0.751-11.217-1.634-22.717-7.634-33.11-11.073-19.178-31.538-29.973-52.424-29.43m0.736 29.43c10.347-0.268 20.473 4.935 26.12 14.716 8.188 14.182 3.503 31.825-10.669 40.007-14.154 8.172-31.816 3.427-40.007-10.76-8.188-14.182-3.503-31.826 10.669-40.008 4.4-2.54 9.157-3.832 13.887-3.955M101.531 117c17.078 25.077 51.202 33.349 77.9 17.934 7.904-4.563 14.227-10.804 19.038-17.934 5.799 5.134 10.88 11.275 14.991 18.394 4.077 7.061 6.808 14.535 8.37 22.073-8.517 0.646-17.06 3.094-24.925 7.634-26.69 15.41-36.646 49.093-23.452 76.428a73.04 73.04 0 0 1-46.906 0.092c8.114-16.946 8.1-37.532-1.931-54.907-10.038-17.387-27.811-27.746-46.538-29.155 3.096-15.391 11.145-29.766 23.453-40.56m123.977 69.714c10.348-0.268 20.473 4.934 26.12 14.716 8.188 14.182 3.503 31.825-10.668 40.007-14.154 8.172-31.817 3.427-40.008-10.76-8.188-14.182-3.503-31.826 10.669-40.008 4.4-2.54 9.157-3.832 13.887-3.955m-152.58 0.092c10.405-0.27 20.486 4.866 26.12 14.624 8.188 14.182 3.503 31.825-10.669 40.007-14.182 8.188-31.825 3.503-40.007-10.669-8.188-14.182-3.503-31.825 10.668-40.007 4.4-2.54 9.158-3.832 13.888-3.955" overflow="visible" text-indent="0" text-transform="none" direction="ltr" block-progression="tb" baseline-shift="baseline" color="#f9fafd" fill="#f9fafd" data-fill-palette-color="accent"></path></svg></g></svg></g></svg></g></svg></g></svg></g><defs></defs></svg><rect width="395.52" height="109.6830808758344" fill="none" stroke="none" visibility="hidden"></rect></g></svg></g></svg>